# xmcd
#
# Track frame offsets:
#	150
#	14906
#	30329
#	44978
#	59093
#	77762
#	88684
#	101096
#	115738
#	129221
#	141677
#	153715
#
# Disc length: 2262 seconds
#
# Revision: 1
# Processed by: cddbd v1.5.2PL0 Copyright (c) Steve Scherf et al.
# Submitted via: audiograbber 1.83.01
#
DISCID=b008d40c
DTITLE=Texas Country Artist - Texas Country Artist 005
DYEAR=1900
DGENRE=
TTITLE0=Let´s Go  - Johs Sandvol
TTITLE1=Saddle Up  - Ryan Couron
TTITLE2=Lonely  - Ashleigh Rogers
TTITLE3=Laws Of Love  - Rick Stancil
TTITLE4=Listening For Angels  - Susan Hickman
TTITLE5=No Hometown Outside  - Badlanz
TTITLE6=Rockabilly Baby  - Liz Talley
TTITLE7=All My Tomorrows - David Tyler
TTITLE8=Play It By Heart  - Scot Finch
TTITLE9=This Ole House - David Joseph
TTITLE10=Hanks Song  - Kim Carson
TTITLE11=Too Many Memories - Billy Joe French
EXTD=
EXTT0=
EXTT1=
EXTT2=
EXTT3=
EXTT4=
EXTT5=
EXTT6=
EXTT7=
EXTT8=
EXTT9=
EXTT10=
EXTT11=
PLAYORDER=
